<svg id="visual" viewBox="0 0 900 600" width="900" height="600" xmlns="http://www.w3.org/2000/svg" xmlns:xlink="http://www.w3.org/1999/xlink" version="1.1"><rect x="0" y="0" width="900" height="600" fill="#A7DBD8"></rect><path d="M462 600L449.2 587.5C436.3 575 410.7 550 417.8 525C425 500 465 475 474 450C483 425 461 400 438.7 375C416.3 350 393.7 325 383.3 300C373 275 375 250 384.8 225C394.7 200 412.3 175 417.8 150C423.3 125 416.7 100 422 75C427.3 50 444.7 25 453.3 12.5L462 0L900 0L900 12.5C900 25 900 50 900 75C900 100 900 125 900 150C900 175 900 200 900 225C900 250 900 275 900 300C900 325 900 350 900 375C900 400 900 425 900 450C900 475 900 500 900 525C900 550 900 575 900 587.5L900 600Z" fill="#f38630"></path><path d="M587 600L562.2 587.5C537.3 575 487.7 550 472.3 525C457 500 476 475 489.7 450C503.3 425 511.7 400 507.5 375C503.3 350 486.7 325 493.5 300C500.3 275 530.7 250 534.8 225C539 200 517 175 521.3 150C525.7 125 556.3 100 561.5 75C566.7 50 546.3 25 536.2 12.5L526 0L900 0L900 12.5C900 25 900 50 900 75C900 100 900 125 900 150C900 175 900 200 900 225C900 250 900 275 900 300C900 325 900 350 900 375C900 400 900 425 900 450C900 475 900 500 900 525C900 550 900 575 900 587.5L900 600Z" fill="#f4822b"></path><path d="M615 600L600.8 587.5C586.7 575 558.3 550 547.7 525C537 500 544 475 554 450C564 425 577 400 589.5 375C602 350 614 325 622.5 300C631 275 636 250 631.7 225C627.3 200 613.7 175 597.2 150C580.7 125 561.3 100 547 75C532.7 50 523.3 25 518.7 12.5L514 0L900 0L900 12.5C900 25 900 50 900 75C900 100 900 125 900 150C900 175 900 200 900 225C900 250 900 275 900 300C900 325 900 350 900 375C900 400 900 425 900 450C900 475 900 500 900 525C900 550 900 575 900 587.5L900 600Z" fill="#f57e25"></path><path d="M678 600L676.8 587.5C675.7 575 673.3 550 656.2 525C639 500 607 475 587.2 450C567.3 425 559.7 400 578.8 375C598 350 644 325 647 300C650 275 610 250 601.3 225C592.7 200 615.3 175 621 150C626.7 125 615.3 100 611.3 75C607.3 50 610.7 25 612.3 12.5L614 0L900 0L900 12.5C900 25 900 50 900 75C900 100 900 125 900 150C900 175 900 200 900 225C900 250 900 275 900 300C900 325 900 350 900 375C900 400 900 425 900 450C900 475 900 500 900 525C900 550 900 575 900 587.5L900 600Z" fill="#f67a1f"></path><path d="M646 600L653.5 587.5C661 575 676 550 680.3 525C684.7 500 678.3 475 674 450C669.7 425 667.3 400 668.8 375C670.3 350 675.7 325 670.2 300C664.7 275 648.3 250 638.3 225C628.3 200 624.7 175 635.8 150C647 125 673 100 686.2 75C699.3 50 699.7 25 699.8 12.5L700 0L900 0L900 12.5C900 25 900 50 900 75C900 100 900 125 900 150C900 175 900 200 900 225C900 250 900 275 900 300C900 325 900 350 900 375C900 400 900 425 900 450C900 475 900 500 900 525C900 550 900 575 900 587.5L900 600Z" fill="#f77619"></path><path d="M750 600L750.5 587.5C751 575 752 550 740.2 525C728.3 500 703.7 475 696.2 450C688.7 425 698.3 400 712.7 375C727 350 746 325 745.5 300C745 275 725 250 718.2 225C711.3 200 717.7 175 718.8 150C720 125 716 100 713 75C710 50 708 25 707 12.5L706 0L900 0L900 12.5C900 25 900 50 900 75C900 100 900 125 900 150C900 175 900 200 900 225C900 250 900 275 900 300C900 325 900 350 900 375C900 400 900 425 900 450C900 475 900 500 900 525C900 550 900 575 900 587.5L900 600Z" fill="#f87212"></path><path d="M737 600L736.7 587.5C736.3 575 735.7 550 748.3 525C761 500 787 475 789.7 450C792.3 425 771.7 400 759.7 375C747.7 350 744.3 325 743.8 300C743.3 275 745.7 250 755.2 225C764.7 200 781.3 175 786.2 150C791 125 784 100 775.3 75C766.7 50 756.3 25 751.2 12.5L746 0L900 0L900 12.5C900 25 900 50 900 75C900 100 900 125 900 150C900 175 900 200 900 225C900 250 900 275 900 300C900 325 900 350 900 375C900 400 900 425 900 450C900 475 900 500 900 525C900 550 900 575 900 587.5L900 600Z" fill="#f96e09"></path><path d="M801 600L810.5 587.5C820 575 839 550 841 525C843 500 828 475 820.7 450C813.3 425 813.7 400 811.7 375C809.7 350 805.3 325 813.2 300C821 275 841 250 841.5 225C842 200 823 175 814 150C805 125 806 100 807.3 75C808.7 50 810.3 25 811.2 12.5L812 0L900 0L900 12.5C900 25 900 50 900 75C900 100 900 125 900 150C900 175 900 200 900 225C900 250 900 275 900 300C900 325 900 350 900 375C900 400 900 425 900 450C900 475 900 500 900 525C900 550 900 575 900 587.5L900 600Z" fill="#fa6900"></path></svg>